# xmcd
#
# Track frame offsets:
#	150
#	18176
#	33478
#	48145
#	61462
#	77313
#	94514
#	111808
#	126145
#	138639
#	150906
#	163402
#	178304
#	191435
#
# Disc length: 2741 seconds
#
# Revision: 1
# Processed by: cddbd v1.5.2PL0 Copyright (c) Steve Scherf et al.
# Submitted via: EasyCDDAExtractor 2010.6.0.0
#
DISCID=ad0ab30e
DTITLE=Various Artist - Mr Music Country  09 2011
DYEAR=2011
DGENRE=Country
TTITLE0=The Geezinslaws - Old Blevins
TTITLE1=Don Cox - Sweet sweet woman
TTITLE2=Gene Watson - Someone's child
TTITLE3=The Kendalls (lead-Jeannie Kendall) - Country music station
TTITLE4=Faron Young - Twin fiddles turn me on
TTITLE5=Ray Price - Today I started loving you again
TTITLE6=Dean Chance - Eagle creek
TTITLE7=Clinton Gregory - In the arms of love
TTITLE8=Earnest Tubb, Willie Nelson, Waylon Jennings - You nearly lose your mi
TTITLE8=nd
TTITLE9=Bryan Smith - If you build it love will come
TTITLE10=Jack Robertson - Blue neon blues
TTITLE11=Bill Young - Sweet sweet Jesus
TTITLE12=Jack Greene - Highway to the sky
TTITLE13=Cal Smith - Lorene
EXTD=
EXTT0=
EXTT1=
EXTT2=
EXTT3=
EXTT4=
EXTT5=
EXTT6=
EXTT7=
EXTT8=
EXTT9=
EXTT10=
EXTT11=
EXTT12=
EXTT13=
PLAYORDER=
